<?xml version="1.0" standalone="no"?>
<!DOCTYPE svg PUBLIC "-//W3C//DTD SVG 20010904//EN"
 "http://www.w3.org/TR/2001/REC-SVG-20010904/DTD/svg10.dtd">
<svg version="1.0" xmlns="http://www.w3.org/2000/svg"
 width="700.000000pt" height="700.000000pt" viewBox="0 0 700.000000 700.000000"
 preserveAspectRatio="xMidYMid meet">
<metadata>
Created by potrace 1.11, written by Peter Selinger 2001-2013
</metadata>
<g transform="translate(0.000000,700.000000) scale(0.100000,-0.100000)"
fill="#000000" stroke="none">
<path d="M2768 6785 c-2 -2 -41 -6 -88 -10 -241 -18 -570 -83 -800 -157 -854
-275 -1355 -765 -1475 -1443 -15 -83 -19 -153 -19 -285 0 -190 11 -288 49
-435 69 -265 196 -486 395 -685 37 -38 90 -101 257 -310 6 -8 32 -40 57 -70
24 -30 44 -55 43 -56 -1 -1 -63 -47 -137 -103 -74 -56 -146 -111 -160 -121
-167 -125 -387 -291 -395 -297 -5 -5 -55 -42 -110 -84 -55 -41 -164 -123 -243
-182 l-143 -108 84 -162 c88 -170 186 -340 199 -345 5 -2 8 -8 8 -13 0 -24
285 -416 422 -580 35 -42 78 -94 96 -117 19 -23 43 -51 54 -64 74 -87 97 -113
128 -147 19 -21 55 -62 80 -91 335 -394 684 -629 1145 -768 181 -55 405 -99
595 -117 36 -4 76 -8 88 -10 173 -27 1388 -27 1532 0 8 1 36 6 63 9 26 3 68 9
95 12 26 3 56 8 67 11 11 2 29 6 40 7 52 8 105 19 155 31 30 8 66 16 80 19
117 25 324 87 470 141 107 40 149 58 290 122 83 37 286 151 300 168 7 8 17 15
22 15 10 0 173 120 223 165 17 14 57 52 90 84 255 244 412 553 453 891 13 108
4 441 -14 524 -3 12 -9 46 -14 76 -36 204 -109 425 -187 563 -18 33 -33 61
-33 63 0 9 -163 227 -190 254 -3 3 -43 52 -89 110 -47 58 -87 107 -91 110 -3
3 -44 50 -91 105 -84 97 -257 269 -331 330 -30 24 -34 33 -25 45 7 8 82 71
167 140 85 68 164 132 175 141 59 50 166 138 199 164 22 17 44 35 50 40 6 6
47 40 91 75 44 36 94 79 111 95 l32 30 -65 115 c-162 288 -237 398 -503 735
-69 88 -144 185 -165 215 -192 271 -440 514 -703 690 -88 58 -340 193 -407
217 -16 6 -68 25 -115 43 -177 66 -473 137 -640 155 -30 3 -66 8 -80 10 -61
10 -201 22 -345 31 -107 6 -742 13 -747 9z m692 -209 c108 -8 210 -16 250 -21
19 -2 58 -7 85 -10 556 -59 1031 -251 1390 -559 122 -105 299 -301 385 -426
13 -19 27 -37 30 -40 12 -12 70 -112 70 -123 0 -7 -8 -17 -17 -23 -15 -9 -319
-256 -528 -429 -22 -18 -110 -90 -195 -159 -85 -70 -165 -136 -178 -147 -12
-10 -24 -19 -26 -19 -2 0 -54 51 -117 113 -221 218 -493 360 -814 423 -11 2
-31 6 -45 9 -14 2 -47 7 -75 11 -27 3 -57 8 -66 9 -9 2 -52 6 -95 10 -43 4
-95 9 -114 11 -51 7 -552 6 -640 -1 -264 -19 -333 -28 -478 -56 -310 -61 -460
-175 -405 -308 38 -94 198 -176 488 -250 108 -28 290 -66 355 -76 14 -2 54 -8
90 -14 36 -5 85 -13 110 -16 25 -3 56 -8 70 -10 32 -4 113 -14 170 -20 61 -7
140 -16 170 -20 14 -2 54 -6 90 -10 36 -3 81 -7 100 -10 19 -2 60 -7 90 -10
52 -6 70 -8 165 -20 22 -3 65 -7 95 -10 30 -4 62 -8 70 -10 8 -2 35 -7 60 -10
62 -8 272 -44 290 -50 8 -2 29 -7 45 -10 42 -7 215 -49 305 -74 227 -61 514
-185 680 -292 292 -189 492 -440 589 -739 29 -91 35 -113 45 -170 3 -14 7 -35
10 -48 24 -110 25 -386 2 -522 -64 -366 -292 -688 -666 -938 -96 -64 -263
-155 -365 -199 -44 -20 -96 -42 -115 -51 -19 -8 -39 -17 -45 -18 -5 -2 -75
-26 -155 -53 -267 -93 -618 -169 -905 -196 -16 -2 -64 -6 -105 -10 -172 -15
-1007 -1 -1150 20 -14 2 -56 6 -95 10 -63 6 -122 13 -240 30 -35 5 -205 38
-260 50 -11 2 -62 16 -114 30 -652 178 -1124 548 -1455 1142 -31 55 -56 102
-56 105 0 5 247 194 819 626 96 73 178 132 181 132 4 0 20 -19 35 -42 90 -138
259 -309 409 -413 135 -93 405 -214 536 -239 14 -2 54 -11 90 -20 104 -24 155
-31 385 -53 161 -15 925 -7 1115 11 19 2 73 7 120 11 47 4 94 9 105 11 11 2
43 6 70 9 40 6 172 31 255 50 54 12 187 69 225 96 56 40 72 65 79 117 9 85
-86 167 -269 230 -134 47 -426 109 -645 138 -30 4 -62 8 -70 9 -8 1 -43 6 -78
9 -35 4 -73 9 -85 12 -12 2 -44 6 -72 9 -27 3 -61 7 -75 9 -14 2 -47 7 -75 11
-27 3 -66 9 -85 11 -19 3 -78 11 -130 19 -52 8 -115 17 -140 20 -85 11 -285
46 -410 71 -422 84 -762 192 -1048 330 -128 62 -343 189 -362 213 -3 3 -28 24
-57 45 -118 89 -267 263 -348 406 -69 122 -137 317 -150 429 -3 26 -8 58 -11
72 -7 32 -7 306 -1 344 3 17 8 48 12 70 76 535 496 982 1160 1235 237 90 547
168 770 195 28 3 61 8 75 10 14 3 63 8 110 11 47 3 86 7 88 9 5 4 605 -3 692
-9z"/>
<path d="M2898 6135 c-2 -1 -52 -5 -113 -9 -60 -3 -126 -8 -145 -11 -19 -2
-57 -7 -85 -10 -288 -32 -606 -109 -840 -203 -537 -215 -805 -554 -807 -1021
-1 -358 209 -661 624 -900 59 -33 109 -61 111 -61 3 0 43 -17 89 -39 183 -85
431 -166 678 -221 117 -26 290 -59 350 -66 25 -2 52 -7 60 -9 8 -2 43 -7 78
-10 35 -4 72 -8 83 -10 18 -4 92 -8 319 -20 47 -3 105 -7 130 -10 25 -2 70 -7
100 -10 106 -11 239 -31 340 -50 113 -21 165 -34 355 -85 101 -27 324 -117
387 -157 21 -13 41 -23 45 -23 11 0 127 -82 180 -127 243 -207 262 -542 43
-760 -66 -67 -163 -131 -273 -183 -114 -53 -294 -115 -397 -135 -8 -2 -26 -6
-40 -9 -27 -6 -39 -8 -170 -31 -110 -18 -142 -23 -215 -31 -33 -3 -71 -8 -85
-10 -155 -24 -1019 -23 -1228 1 -111 13 -219 26 -232 29 -8 2 -33 6 -55 10
-394 76 -696 232 -945 488 l-65 67 -45 -35 c-25 -19 -52 -40 -60 -47 -8 -7
-58 -46 -110 -87 -52 -41 -97 -77 -100 -80 -3 -3 -22 -18 -43 -33 l-38 -29 48
-56 c173 -206 345 -339 586 -457 117 -56 329 -138 390 -149 12 -2 49 -11 82
-19 107 -28 293 -59 423 -72 31 -3 77 -8 102 -10 261 -26 1150 -25 1345 0 536
71 917 178 1224 343 441 236 646 535 636 925 -2 67 -6 136 -10 152 -22 107
-42 171 -80 250 -154 324 -490 542 -1060 690 -158 41 -332 80 -401 90 -16 2
-67 10 -114 19 -47 8 -105 17 -130 21 -25 3 -70 10 -100 15 -30 5 -75 12 -100
15 -25 3 -56 8 -70 10 -14 3 -47 7 -75 10 -27 3 -75 10 -105 15 -30 5 -77 11
-105 15 -27 3 -61 7 -75 10 -14 2 -47 7 -75 10 -27 3 -57 8 -65 10 -8 2 -37 6
-65 10 -27 3 -61 8 -75 10 -14 3 -41 7 -60 9 -77 10 -174 27 -345 61 -532 107
-835 266 -949 500 -42 87 -56 143 -57 237 -2 206 75 354 252 486 167 124 488
235 779 268 25 3 56 7 70 9 160 28 801 27 1035 -1 82 -9 285 -43 359 -60 256
-56 556 -196 734 -342 l42 -34 43 35 c23 19 54 45 68 58 14 13 43 39 65 58 21
18 69 60 106 93 l67 59 -53 47 c-77 69 -95 83 -166 133 -160 113 -364 216
-564 284 -134 46 -307 90 -432 111 -16 2 -40 6 -54 9 -14 3 -47 7 -75 10 -27
4 -57 8 -65 10 -17 5 -94 13 -195 21 -73 6 -611 14 -617 9z"/>
</g>
</svg>
