<?xml version="1.0" encoding="UTF-8"?>
<svg width="33px" height="33px" viewBox="0 0 33 33" version="1.1" xmlns="http://www.w3.org/2000/svg" xmlns:xlink="http://www.w3.org/1999/xlink">
    <!-- Generator: Sketch 53.2 (72643) - https://sketchapp.com -->
    <title>Logo</title>
    <desc>Created with Sketch.</desc>
    <g id="Logo" stroke="none" stroke-width="1" fill="none" fill-rule="evenodd">
        <path d="M5.53965184,21.121289 C8.17021277,24.211075 12.131528,24.0226734 15.5357834,24.0226734 C17.3926499,24.0226734 23.7369439,23.6458703 23.7369439,20.3676827 C23.7369439,17.0518149 16.959381,16.2605282 14.8858801,16.2605282 L14.9168279,16.2605282 C11.9458414,16.1098069 4.27079304,14.7533155 4.27079304,9.96791534 C4.27079304,4.73035134 11.7601547,4.05210564 14.762089,4.05210564 C17.9497099,4.05210564 21.5705996,4.61731039 24.139265,7.06653097 L22.4990329,8.498383 C20.1470019,6.50132622 17.0831721,6.31292463 14.3288201,6.31292463 C12.4410058,6.31292463 7.05609284,6.65204748 7.05609284,9.96791534 C7.05609284,16.4489298 26.4912959,11.475128 26.4912959,20.3676827 C26.4912959,25.1154026 18.8471954,26.2834924 16.0618956,26.2834924 L13.7408124,26.2834924 C10.3365571,26.2834924 6.12765957,25.8690089 3.6827853,22.5908214 L5.53965184,21.121289 Z M1.11411992,21.7995347 C4.42553191,28.3559098 10.4912959,28.3935901 16.0618956,28.3935901 C19.8375242,28.3935901 28.2243714,26.5095743 28.2243714,20.3676827 C28.2243714,12.9446603 19.6208897,12.5301769 15.2263056,12.0403328 C14.2359768,11.9272918 8.78916828,11.3620871 8.78916828,9.96791534 C8.78916828,8.38534205 13.8646035,8.42302236 14.762089,8.42302236 C17.4235977,8.42302236 20.3017408,8.79982553 22.2514507,11.2490461 L26.7698259,7.55637508 C23.6131528,2.3564914 18.6924565,1.94200791 13.8336557,1.94200791 C9.93423598,1.94200791 2.56866538,3.78834343 2.56866538,9.96791534 C2.56866538,17.0518149 12.0077369,17.9184621 16.3404255,18.5213472 C17.1450677,18.6343882 22.0038685,19.0488716 22.0038685,20.3676827 C22.0038685,22.0256166 15.3500967,21.9125757 14.1740812,21.9125757 C11.0793037,21.9125757 7.89168279,21.3850513 5.84912959,18.2199047 L1.11411992,21.7995347 Z M8.52651283e-14,21.4980922 L5.60154739,17.2778968 L4.11605416,15.4315612 C2.69245648,14.1127502 1.79497099,12.3794556 1.79497099,9.96791534 C1.79497099,3.07241741 9.655706,1 13.8336557,1 C18.6924565,1 23.860735,1.2260819 27.6363636,6.84044907 C30.205029,9.96791534 30.3907157,10.7968823 30.8239845,11.5128083 L26.8626692,14.7533155 C27.2959381,15.2054793 27.6982592,15.2054793 30.3907157,18.6343882 C31.3810445,19.8778386 32,21.9879363 32,24.1357144 C32,30.9181713 23.1489362,32.9905888 19.1566731,32.9905888 C14.2669246,32.9905888 8.94390716,33.4050722 5.10638298,28.732713 C1.88781431,25.1530829 0.897485493,23.3444277 8.52651283e-14,21.4980922 Z" id="S" fill="#B8AB8C" fill-rule="nonzero"></path>
    </g>
</svg>